<?xml version="1.0" standalone="no"?>
<!DOCTYPE svg PUBLIC "-//W3C//DTD SVG 20010904//EN"
 "http://www.w3.org/TR/2001/REC-SVG-20010904/DTD/svg10.dtd">
<svg version="1.0" xmlns="http://www.w3.org/2000/svg"
 width="381.000000pt" height="431.000000pt" viewBox="0 0 381.000000 431.000000"
 preserveAspectRatio="xMidYMid meet">
<metadata>
Created by potrace 1.16, written by Peter Selinger 2001-2019
</metadata>
<g transform="translate(0.000000,431.000000) scale(0.100000,-0.100000)"
fill="#000000" stroke="none">
<path d="M0 3025 l0 -1285 160 0 c171 0 173 1 145 50 -18 32 -18 41 0 34 13
-5 15 26 15 245 l0 251 515 0 515 0 0 113 c-1 95 -3 109 -14 95 -12 -17 -48
-18 -490 -18 l-476 0 0 65 c0 53 -3 63 -15 59 -19 -8 -19 4 0 36 8 14 14 28
15 33 0 4 -38 7 -85 7 l-85 0 0 155 0 155 215 0 215 0 0 126 c0 108 -2 125
-15 120 -19 -7 -19 -5 2 39 l17 36 -162 162 -162 162 322 322 323 323 -478 0
-477 0 0 -1285z"/>
<path d="M1196 4069 l241 -241 42 22 c43 21 43 21 36 1 -6 -21 -4 -21 189 -21
l196 0 0 40 c0 30 3 38 15 34 8 -3 24 1 37 10 28 20 42 20 34 1 -4 -12 5 -15
54 -15 l60 0 0 110 0 110 455 0 455 0 0 -455 0 -455 -225 0 -226 0 16 -30 c19
-37 19 -51 0 -44 -12 5 -15 -5 -15 -55 l0 -61 175 0 175 0 0 -155 0 -155 -75
0 -75 0 0 -200 0 -200 -408 0 c-383 0 -410 -1 -425 -18 -14 -15 -17 -40 -17
-120 l0 -102 111 0 c95 0 110 2 105 15 -7 19 7 19 44 0 l30 -16 0 76 0 75 355
0 355 0 0 -155 0 -155 -175 0 -175 0 0 -61 c0 -50 3 -60 15 -55 19 7 19 -7 0
-44 l-16 -30 226 0 225 0 0 -225 c0 -124 3 -225 8 -225 4 0 16 7 26 15 26 19
47 19 40 0 -5 -13 24 -15 230 -15 l236 0 0 70 0 70 -225 0 -225 0 0 155 0 155
175 0 176 0 -16 30 c-19 37 -19 51 0 44 8 -4 15 -1 15 5 0 8 -47 11 -150 11
l-150 0 0 50 0 50 -75 0 -75 0 0 155 0 155 155 0 155 0 0 -155 0 -155 -75 0
-75 0 0 -45 0 -45 150 0 c131 0 150 -2 150 -16 0 -10 6 -14 15 -10 19 7 19 -7
0 -44 l-16 -30 176 0 175 0 0 1295 0 1295 -1427 0 -1428 0 241 -241z"/>
<path d="M642 3977 l-312 -312 313 -313 312 -312 313 313 312 312 -313 313
-312 312 -313 -313z m395 -271 c-12 -30 -37 -30 -65 -1 l-27 28 32 -23 c50
-36 72 -8 31 39 -22 26 -22 26 6 -1 18 -17 27 -32 23 -42z m-97 -41 c22 -24
24 -24 44 -8 18 14 17 13 -2 -7 l-22 -25 -32 33 c-18 17 -28 32 -22 32 6 0 21
-11 34 -25z m-20 -35 c30 -17 32 -19 11 -17 -18 1 -26 -4 -30 -22 -6 -22 -7
-21 -24 13 -9 20 -17 39 -17 41 0 10 26 3 60 -15z"/>
<path d="M880 3630 c0 -13 18 -22 24 -11 3 5 -1 11 -9 15 -8 3 -15 1 -15 -4z"/>
<path d="M2110 3665 l0 -445 445 0 445 0 0 445 0 445 -445 0 -445 0 0 -445z
m376 24 c1 -15 4 -34 7 -43 4 -9 2 -16 -3 -16 -6 0 -10 9 -10 20 0 29 -37 27
-43 -2 -2 -13 -5 -1 -6 25 -1 47 0 48 27 45 21 -2 27 -8 28 -29z m73 9 c5 -13
11 -34 15 -48 6 -23 6 -23 -7 -7 -8 9 -19 17 -25 17 -6 0 -16 -8 -21 -17 -16
-27 -13 0 4 41 18 42 23 44 34 14z m61 -14 c9 -27 15 -33 21 -23 5 8 9 10 9 4
0 -5 -5 -17 -10 -25 -7 -12 -12 -8 -22 20 l-13 35 -6 -35 c-6 -33 -6 -33 -8
13 -1 56 13 61 29 11z m60 -15 c0 -21 -4 -39 -9 -39 -10 0 -21 59 -14 77 9 24
23 2 23 -38z"/>
<path d="M2440 3695 c0 -8 9 -15 20 -15 11 0 20 7 20 15 0 8 -9 15 -20 15 -11
0 -20 -7 -20 -15z"/>
<path d="M2536 3685 c-3 -8 -1 -15 4 -15 6 0 10 7 10 15 0 8 -2 15 -4 15 -2 0
-6 -7 -10 -15z"/>
<path d="M1910 3665 l0 -215 60 0 c49 0 58 3 54 15 -8 19 4 19 36 0 14 -8 28
-14 33 -15 4 0 7 97 7 215 l0 215 -60 0 c-49 0 -58 -3 -54 -15 8 -19 -7 -19
-32 0 -43 32 -44 27 -44 -200z"/>
<path d="M1515 3799 c7 -20 6 -20 -27 -4 -27 14 -20 4 39 -56 l73 -74 -77 -77
-78 -78 193 0 c191 0 193 0 187 21 l-7 20 41 -21 41 -20 0 155 0 155 -196 0
c-193 0 -195 0 -189 -21z"/>
<path d="M1355 3420 l-79 -79 17 -36 c21 -44 21 -46 2 -39 -13 5 -15 -12 -15
-120 l0 -126 215 0 215 0 0 -75 c0 -41 3 -75 8 -75 4 0 16 7 26 15 26 19 47
19 40 0 -5 -12 5 -15 55 -15 l61 0 0 315 c0 173 -3 315 -7 315 -5 -1 -19 -7
-33 -15 -32 -18 -41 -18 -34 0 5 13 -20 15 -193 15 l-198 0 -80 -80z"/>
<path d="M1910 3150 l0 -280 111 0 c95 0 110 2 105 15 -7 19 7 19 44 0 l30
-16 0 76 0 75 175 0 175 0 0 61 c0 50 -3 60 -15 55 -19 -7 -19 7 0 44 l16 30
-226 0 -225 0 0 110 c0 61 -3 110 -7 110 -5 -1 -19 -7 -33 -15 -32 -19 -44
-19 -36 0 4 12 -5 15 -54 15 l-60 0 0 -280z"/>
<path d="M665 3292 c16 -33 16 -34 -4 -27 -20 6 -21 3 -21 -119 l0 -126 135 0
135 0 0 -155 0 -155 -85 0 -85 0 0 -45 0 -45 288 0 c267 0 290 1 305 18 10 10
17 31 17 45 l0 27 -175 0 -175 0 0 155 0 155 135 0 135 0 0 126 c0 122 -1 125
-21 119 -20 -7 -20 -6 -4 27 11 22 -33 -17 -136 -119 l-154 -153 -153 153
c-104 102 -149 141 -137 119z"/>
<path d="M210 2865 l0 -145 345 0 345 0 0 145 0 145 -345 0 -345 0 0 -145z
m302 29 c15 -33 1 -58 -36 -62 -25 -3 -26 -1 -26 42 0 42 2 46 25 46 18 0 29
-8 37 -26z m66 19 c-13 -3 -18 -16 -20 -46 l-1 -42 -4 42 c-3 29 -9 43 -21 46
-9 3 1 5 23 5 22 0 32 -2 23 -5z m66 -40 c11 -35 12 -43 2 -30 -7 9 -18 17
-24 17 -6 0 -16 -8 -21 -17 -6 -11 -11 -13 -11 -5 0 15 27 82 34 82 2 0 11
-21 20 -47z"/>
<path d="M460 2875 c0 -28 4 -35 19 -35 24 0 37 36 21 55 -22 27 -40 17 -40
-20z"/>
<path d="M616 2891 c-4 -7 -5 -15 -2 -18 9 -9 19 4 14 18 -4 11 -6 11 -12 0z"/>
<path d="M1010 2865 l0 -145 345 0 345 0 0 145 0 145 -345 0 -345 0 0 -145z
m283 10 c17 -47 13 -57 -9 -27 -13 16 -15 16 -28 0 -23 -30 -26 -20 -8 27 9
25 19 45 23 45 4 0 14 -20 22 -45z m57 -35 c14 0 20 9 23 38 l4 37 -1 -40 c-1
-36 -4 -40 -26 -40 -23 0 -25 4 -26 43 l-1 42 4 -40 c3 -31 8 -40 23 -40z m95
66 c8 10 15 14 15 9 0 -6 -6 -17 -12 -23 -10 -10 -10 -17 0 -32 17 -27 15 -39
-3 -16 -15 20 -15 20 -30 0 -18 -23 -20 -11 -3 16 10 15 10 22 0 32 -6 6 -12
17 -12 23 0 5 7 1 15 -9 15 -20 15 -20 30 0z"/>
<path d="M1260 2880 c0 -5 5 -10 10 -10 6 0 10 5 10 10 0 6 -4 10 -10 10 -5 0
-10 -4 -10 -10z"/>
<path d="M2210 2865 l0 -145 345 0 345 0 0 145 0 145 -345 0 -345 0 0 -145z
m269 33 c5 -13 11 -34 15 -48 6 -23 6 -23 -7 -7 -8 9 -19 17 -25 17 -6 0 -16
-8 -21 -17 -16 -27 -13 3 3 42 17 41 23 43 35 13z m90 8 c7 -8 11 -27 9 -43
-2 -23 -8 -29 -35 -31 -32 -3 -33 -2 -33 36 0 21 3 42 7 45 11 12 40 8 52 -7z
m87 6 c6 -4 11 -25 11 -47 1 -33 -1 -36 -8 -17 -5 12 -17 22 -28 22 -12 0 -21
-8 -24 -22 -2 -13 -5 -2 -6 25 -1 43 1 47 22 47 12 0 27 -4 33 -8z"/>
<path d="M2456 2885 c-3 -8 -1 -15 4 -15 6 0 10 7 10 15 0 8 -2 15 -4 15 -2 0
-6 -7 -10 -15z"/>
<path d="M2530 2875 c0 -29 3 -36 18 -33 11 2 17 13 17 33 0 20 -6 31 -17 33
-15 3 -18 -4 -18 -33z"/>
<path d="M2610 2895 c0 -11 7 -15 23 -13 12 2 22 8 22 13 0 6 -10 11 -22 13
-16 2 -23 -2 -23 -13z"/>
<path d="M1710 2785 l0 -75 -175 0 -175 0 0 -28 c0 -59 14 -62 254 -62 190 0
217 2 212 15 -7 19 7 19 44 0 l30 -16 0 121 0 120 -61 0 c-50 0 -60 -3 -55
-15 7 -19 -14 -19 -40 0 -10 8 -22 15 -26 15 -5 0 -8 -34 -8 -75z"/>
<path d="M1910 2607 c0 -233 1 -255 18 -270 17 -15 61 -17 420 -17 l402 0 0
195 0 195 -275 0 -275 0 0 75 0 76 -30 -16 c-37 -19 -51 -19 -44 0 5 13 -10
15 -105 15 l-111 0 0 -253z"/>
<path d="M390 2703 c1 -5 7 -19 15 -33 19 -32 19 -44 0 -36 -12 4 -15 -5 -15
-54 l0 -60 463 0 c526 0 497 -5 497 81 -1 39 -2 42 -14 27 -12 -16 -39 -18
-315 -18 l-301 0 0 50 0 50 -165 0 c-91 0 -165 -3 -165 -7z"/>
<path d="M1360 2599 c0 -79 -1 -79 288 -79 l252 0 0 45 0 46 -30 -16 c-37 -19
-51 -19 -44 0 5 13 -23 15 -216 15 -200 0 -224 2 -236 18 -12 15 -13 11 -14
-29z"/>
<path d="M1360 2433 l0 -113 288 0 c241 1 284 3 270 14 -15 11 -18 29 -18 95
l0 81 -256 0 c-233 0 -258 2 -270 18 -11 14 -13 0 -14 -95z"/>
<path d="M340 2064 c0 -215 2 -245 15 -240 18 7 18 -2 0 -34 -29 -51 -37 -50
300 -50 337 0 329 -1 300 50 -18 32 -18 41 0 34 11 -5 15 1 15 25 l0 31 -185
0 -185 0 0 160 0 160 175 0 175 0 -20 41 -21 41 20 -7 c17 -5 21 -2 21 14 0
21 -3 21 -305 21 l-305 0 0 -246z"/>
<path d="M960 2289 c0 -16 4 -19 21 -14 l20 7 -21 -41 -20 -41 175 0 175 0 0
-160 0 -160 -160 0 -160 0 0 -31 c0 -24 4 -30 15 -25 18 7 18 -2 0 -34 -28
-49 -26 -50 147 -50 l162 0 -69 -71 c-59 -60 -65 -68 -36 -54 30 15 33 15 28
1 -6 -14 13 -16 178 -16 l185 0 0 140 0 140 -100 0 -100 0 0 160 0 160 205 0
205 0 0 -160 0 -160 -100 0 -100 0 0 -150 0 -150 -190 0 c-170 0 -189 -2 -183
-16 5 -15 3 -15 -25 0 -17 9 -37 16 -44 16 -8 0 -47 -34 -88 -75 l-74 -75
-173 0 -173 0 0 -55 0 -55 300 0 300 0 0 -66 c0 -55 3 -65 15 -60 19 7 19 -7
0 -44 l-16 -30 226 0 225 0 0 -110 0 -110 60 0 c49 0 58 3 54 15 -8 19 4 19
36 0 14 -8 28 -14 33 -15 4 0 7 311 7 691 0 647 1 693 18 705 14 11 -63 13
-470 14 -487 0 -488 0 -488 -21z"/>
<path d="M2210 2065 l0 -145 345 0 345 0 0 145 0 145 -345 0 -345 0 0 -145z
m257 -12 c-2 -16 -4 -5 -4 22 0 28 2 40 4 28 2 -13 2 -35 0 -50z m59 31 l19
-35 6 38 c6 37 6 36 7 -12 l1 -50 -28 35 -29 35 -5 -35 c-3 -30 -4 -28 -5 13
-2 56 8 60 34 11z m112 16 c5 -13 3 -13 -12 -1 -12 10 -20 11 -28 3 -8 -8 -4
-14 16 -22 34 -13 32 -45 -3 -45 -14 0 -25 6 -27 13 -1 7 0 8 3 2 6 -13 43
-13 43 0 0 6 -11 15 -25 20 -24 9 -32 29 -18 44 12 11 46 2 51 -14z"/>
<path d="M3010 2065 l0 -145 145 0 145 0 0 145 0 145 -145 0 -145 0 0 -145z
m98 37 c3 -11 1 -11 -17 0 -18 11 -23 11 -31 -2 -24 -36 17 -84 42 -48 8 10 9
10 5 -2 -5 -20 -47 -26 -58 -8 -13 19 -11 52 3 66 16 16 50 12 56 -6z m55 -65
c18 -4 17 -5 -5 -6 -27 -1 -28 1 -26 47 l1 47 4 -42 c3 -33 8 -43 26 -46z m75
65 c26 22 26 22 8 1 -18 -22 -18 -24 -1 -43 10 -11 16 -23 12 -26 -3 -3 -10 4
-17 15 -14 27 -28 27 -33 -1 -2 -13 -4 0 -4 27 0 28 2 39 4 27 l5 -24 26 24z"/>
<path d="M610 2040 l0 -140 345 0 345 0 0 140 0 140 -345 0 -345 0 0 -140z
m285 35 c0 -13 -8 -21 -22 -23 -13 -2 -23 -12 -26 -25 -2 -12 -5 0 -6 26 -1
47 0 48 27 45 19 -2 27 -9 27 -23z m82 -25 c1 -36 0 -40 -7 -22 -5 12 -16 22
-25 22 -9 0 -20 -10 -25 -22 -7 -20 -9 -17 -9 18 -1 48 5 56 39 52 22 -3 25
-8 27 -48z m79 32 c1 -7 0 -8 -3 -2 -15 30 -59 -12 -47 -44 7 -17 44 -22 44
-6 0 6 5 10 11 10 8 0 8 -5 -1 -15 -32 -39 -85 8 -60 54 12 24 51 26 56 3z"/>
<path d="M850 2076 c0 -10 9 -16 21 -16 24 0 21 23 -4 28 -10 2 -17 -3 -17
-12z"/>
<path d="M927 2084 c-14 -14 -6 -24 19 -24 16 0 24 5 22 13 -5 14 -31 21 -41
11z"/>
<path d="M1410 2040 l0 -140 195 0 195 0 0 140 0 140 -195 0 -195 0 0 -140z
m114 54 c9 -3 16 -11 16 -17 0 -7 -4 -7 -12 1 -16 16 -38 15 -38 -2 0 -8 10
-16 23 -18 14 -2 22 -10 22 -23 0 -27 -49 -34 -59 -8 -6 14 -5 16 5 6 16 -16
49 -17 49 -3 0 6 -11 15 -25 20 -24 9 -32 29 -18 43 8 9 17 9 37 1z m65 -24
l13 35 13 -35 12 -35 12 35 11 35 -6 -40 c-8 -55 -21 -65 -32 -24 -10 35 -11
34 -28 -18 -5 -15 -7 -16 -14 -3 -4 8 -10 31 -14 50 l-6 35 13 -35 14 -34 12
34z m129 23 c-13 -3 -18 -16 -20 -46 l-1 -42 -4 42 c-3 29 -9 43 -21 46 -9 3
1 5 23 5 22 0 32 -2 23 -5z"/>
<path d="M1910 1780 l0 -280 60 0 c49 0 58 3 54 15 -8 19 4 19 36 0 14 -8 28
-14 33 -15 4 0 7 50 7 110 l0 110 225 0 226 0 -16 30 c-19 37 -19 51 0 44 12
-5 15 5 15 55 l0 61 -175 0 -175 0 0 75 0 76 -30 -16 c-37 -19 -51 -19 -44 0
5 13 -10 15 -105 15 l-111 0 0 -280z"/>
<path d="M0 867 l0 -867 1905 0 1905 0 0 705 0 705 -125 0 -125 0 0 -75 0 -75
-241 0 c-210 0 -240 -2 -235 -15 7 -19 -14 -19 -40 0 -10 8 -22 15 -26 15 -5
0 -8 -101 -8 -225 l0 -225 -455 0 -455 0 0 110 0 110 -60 0 c-49 0 -58 -3 -54
-15 8 -19 -7 -19 -32 0 -43 32 -44 27 -44 -215 0 -126 3 -230 8 -230 4 0 16 7
26 15 26 19 47 19 40 0 -5 -12 5 -15 55 -15 l61 0 0 75 0 75 355 0 355 0 0
-155 0 -155 -355 0 -355 0 0 75 0 75 -61 0 c-50 0 -60 -3 -55 -15 7 -19 -14
-19 -40 0 -10 8 -22 15 -26 15 -5 0 -8 -88 -8 -195 l0 -195 61 0 c50 0 60 3
55 15 -7 19 7 19 44 0 l30 -16 0 76 0 75 355 0 355 0 0 -155 0 -155 -355 0
-355 0 0 75 0 76 -30 -16 c-37 -19 -51 -19 -44 0 5 12 -5 15 -55 15 l-60 0 -4
-77 c-1 -43 -4 18 -5 135 l-2 212 -60 0 c-49 0 -58 -3 -54 -15 8 -19 -7 -19
-32 0 -40 30 -44 21 -44 -95 l0 -110 -455 0 -455 0 0 455 0 455 225 0 226 0
-16 30 c-19 37 -19 51 0 44 12 -5 15 5 15 55 l0 61 -300 0 -300 0 0 60 0 60
-172 0 -173 0 -152 152 -153 153 0 -868z"/>
<path d="M170 1585 l145 -145 340 0 340 0 145 145 145 145 -630 0 -630 0 145
-145z m385 25 c8 -36 21 -31 30 10 10 46 25 35 24 -17 -2 -46 -2 -46 -8 -13
l-7 35 -8 -32 c-9 -40 -23 -42 -33 -5 l-7 27 -7 -30 c-6 -26 -7 -23 -8 18 -1
52 13 56 24 7z m106 -40 c15 0 19 7 19 35 0 19 5 35 10 35 14 0 12 -43 -3 -64
-7 -10 -22 -17 -33 -15 -15 3 -19 13 -20 47 l-1 42 4 -40 c3 -32 8 -40 24 -40z
m95 64 c15 22 19 10 4 -14 -6 -10 -4 -22 6 -37 17 -27 7 -31 -12 -5 -12 16
-14 16 -28 -3 -8 -11 -16 -15 -16 -9 0 5 5 15 12 22 9 9 9 18 0 39 -12 26 -11
27 3 8 16 -20 16 -20 31 -1z"/>
<path d="M2110 1265 l0 -445 445 0 445 0 0 445 0 445 -445 0 -445 0 0 -445z
m209 41 c7 -8 11 -27 9 -43 -2 -23 -8 -29 -35 -31 -32 -3 -33 -2 -33 36 0 21
3 42 7 45 11 12 40 8 52 -7z m69 7 c-16 -2 -28 -11 -28 -19 0 -8 11 -15 28
-15 l27 -2 -27 -4 c-16 -2 -28 -10 -28 -18 0 -8 12 -16 28 -18 25 -4 25 -4 -5
-6 -33 -1 -33 0 -33 44 0 44 0 45 33 44 30 -2 30 -2 5 -6z m100 -13 c5 -13 3
-13 -12 -1 -15 12 -19 12 -33 -1 -19 -20 -9 -58 17 -58 10 0 21 5 23 10 3 6 4
5 3 -2 -4 -19 -47 -16 -59 4 -17 25 7 70 35 66 12 -2 24 -10 26 -18z m90 8 c7
-7 12 -22 12 -34 0 -51 -72 -61 -78 -11 -6 47 36 75 66 45z m80 3 c8 -5 12
-22 10 -42 -2 -29 -7 -34 -30 -37 -27 -3 -28 -2 -28 42 0 47 15 59 48 37z m70
2 c-16 -2 -28 -11 -28 -19 0 -8 11 -15 28 -15 l27 -2 -27 -4 c-16 -2 -28 -10
-28 -18 0 -8 12 -16 28 -18 25 -4 25 -4 -5 -6 -33 -1 -33 0 -33 44 0 44 0 45
33 44 30 -2 30 -2 5 -6z m99 -5 c4 -7 8 -29 9 -48 2 -32 1 -33 -8 -12 -6 12
-19 22 -29 22 -10 0 -19 -9 -22 -22 -2 -13 -5 -2 -6 25 -1 44 1 47 23 47 14 0
28 -6 33 -12z"/>
<path d="M2280 1275 c0 -29 3 -36 18 -33 11 2 17 13 17 33 0 20 -6 31 -17 33
-15 3 -18 -4 -18 -33z"/>
<path d="M2524 1296 c-10 -26 1 -51 23 -54 14 -2 23 3 28 18 12 37 -38 71 -51
36z"/>
<path d="M2620 1275 c0 -29 3 -36 18 -33 11 2 17 13 17 33 0 20 -6 31 -17 33
-15 3 -18 -4 -18 -33z"/>
<path d="M2780 1295 c0 -11 7 -15 23 -13 12 2 22 8 22 13 0 6 -10 11 -22 13
-16 2 -23 -2 -23 -13z"/>
<path d="M3110 1565 l0 -145 345 0 345 0 0 145 0 145 -345 0 -345 0 0 -145z
m297 -12 c-2 -16 -4 -5 -4 22 0 28 2 40 4 28 2 -13 2 -35 0 -50z m91 49 c3
-11 1 -11 -17 0 -18 11 -23 11 -31 -2 -24 -36 17 -84 42 -48 8 10 9 10 5 -2
-5 -20 -47 -26 -58 -8 -13 19 -11 52 3 66 16 16 50 12 56 -6z"/>
<path d="M1910 1265 c0 -227 1 -232 44 -200 25 19 40 19 32 0 -4 -12 5 -15 54
-15 l60 0 0 215 c0 118 -3 215 -7 215 -5 -1 -19 -7 -33 -15 -32 -19 -44 -19
-36 0 4 12 -5 15 -54 15 l-60 0 0 -215z"/>
<path d="M810 665 l0 -445 445 0 445 0 0 445 0 445 -445 0 -445 0 0 -445z
m366 47 c6 -4 11 -25 11 -47 1 -33 -1 -36 -8 -17 -5 12 -17 22 -28 22 -12 0
-21 -8 -24 -22 -2 -13 -5 -2 -6 25 -1 43 1 47 22 47 12 0 27 -4 33 -8z m93 -6
c7 -8 11 -27 9 -43 -2 -23 -8 -28 -32 -28 -38 0 -54 25 -38 59 13 29 43 34 61
12z m41 -41 l-8 -40 -1 50 c-1 29 3 45 8 40 5 -6 6 -28 1 -50z m69 8 c-2 -46
-2 -46 -8 -13 l-7 35 -8 -32 c-7 -30 -26 -47 -26 -24 0 5 -3 18 -6 28 -5 15
-4 15 5 3 11 -16 12 -15 29 23 17 39 22 34 21 -20z"/>
<path d="M1130 696 c0 -11 9 -16 26 -16 31 0 28 23 -4 28 -15 2 -22 -2 -22
-12z"/>
<path d="M1221 696 c-19 -23 -4 -58 22 -54 17 2 22 10 22 33 0 34 -24 45 -44
21z"/>
<path d="M1710 665 c0 -227 1 -232 44 -200 25 19 40 19 32 0 -4 -12 5 -15 54
-15 l60 0 0 215 c0 118 -3 215 -7 215 -5 -1 -19 -7 -33 -15 -32 -19 -44 -19
-36 0 4 12 -5 15 -54 15 l-60 0 0 -215z"/>
<path d="M2110 565 l0 -145 345 0 345 0 0 145 0 145 -345 0 -345 0 0 -145z
m257 -12 c-2 -16 -4 -5 -4 22 0 28 2 40 4 28 2 -13 2 -35 0 -50z m59 31 l19
-35 6 38 c6 37 6 36 7 -12 l1 -50 -28 35 -29 35 -5 -35 c-3 -30 -4 -28 -5 13
-2 56 8 60 34 11z m112 9 c3 -19 -1 -23 -22 -23 -18 0 -26 -6 -29 -22 -2 -13
-5 -1 -6 25 -1 47 0 48 27 45 19 -2 28 -9 30 -25z"/>
<path d="M2490 596 c0 -10 9 -16 21 -16 24 0 21 23 -4 28 -10 2 -17 -3 -17
-12z"/>
<path d="M2110 165 l0 -145 345 0 345 0 0 145 0 145 -345 0 -345 0 0 -145z
m293 34 c5 -9 7 -28 3 -42 -11 -46 -76 -31 -76 18 0 43 51 60 73 24z m57 -59
c14 0 20 9 23 35 l4 35 -1 -37 c-1 -34 -4 -38 -26 -38 -23 0 -25 4 -26 43 l-1
42 4 -40 c3 -31 8 -40 23 -40z m103 73 c-8 -2 -13 -22 -13 -44 0 -21 -4 -39
-10 -39 -5 0 -10 18 -10 39 0 22 -5 42 -12 44 -7 3 3 5 22 5 19 0 29 -2 23 -5z"/>
<path d="M2351 196 c-20 -24 -9 -51 19 -51 21 0 25 5 25 30 0 34 -24 45 -44
21z"/>
</g>
</svg>
